0 Three-step Staircase
0 Name: model.ldr
0 !RC TITLE Base
0 !RC TEXT Place two red 2x4 bricks side by side as the base.
1 4 -20 -24 0 1 0 0 0 1 0 0 0 1 3001.dat
1 4 20 -24 0 1 0 0 0 1 0 0 0 1 3001.dat
0 STEP
0 !RC TITLE First step
0 !RC TEXT Add a blue 2x4 plate at the front.
1 1 0 -32 -35 1 0 0 0 1 0 0 0 1 3020.dat
0 STEP
0 !RC TITLE Second step
0 !RC TEXT Add a green 2x4 brick behind the first step.
1 2 0 -48 0 1 0 0 0 1 0 0 0 1 3001.dat
0 STEP
0 !RC TITLE Third step
0 !RC TEXT Add a yellow 2x4 plate behind the green course.
1 14 0 -56 35 1 0 0 0 1 0 0 0 1 3020.dat
0 STEP
0 !RC TITLE Handrails
0 !RC TEXT Add two red 1x4 bricks along the high sides.
1 4 -35 -72 30 1 0 0 0 1 0 0 0 1 3010.dat
1 4 35 -72 30 1 0 0 0 1 0 0 0 1 3010.dat
