0 Ice cream (11039)
0 Name: model.ldr
0 Author: LEGO Classic 11039 Creative Food Friends (demo booklet)
0 !RC TITLE Cone
0 !RC TEXT Stack two tan 2x2 round bricks, then a lime 2x4 brick and a white 2x4 plate on top.
1 19 0 -24 0 1 0 0 0 1 0 0 0 1 3941.dat
1 19 0 -48 0 1 0 0 0 1 0 0 0 1 3941.dat
1 27 0 -72 0 1 0 0 0 1 0 0 0 1 3001.dat
1 15 0 -80 0 1 0 0 0 1 0 0 0 1 3020.dat
0 STEP
0 !RC TITLE Cone rim
0 !RC TEXT Lay a coral 1x4 brick along the back row.
1 353 0 -104 -10 1 0 0 0 1 0 0 0 1 3010.dat
0 STEP
0 !RC TITLE Lower chips
0 !RC TEXT Front row: two coral 1x2 side-stud bricks side by side, studs facing front, with a round tile on each stud.
1 353 -20 -104 10 1 0 0 0 1 0 0 0 1 86876.dat
1 353 20 -104 10 1 0 0 0 1 0 0 0 1 86876.dat
1 0 -20 -92 28 1 0 0 0 0 1 0 -1 0 98138.dat
1 0 20 -92 28 1 0 0 0 0 1 0 -1 0 98138.dat
0 STEP
0 !RC TITLE Upper chip
0 !RC TEXT Centre a coral 1x2 side-stud brick on the front row above, stud facing front, and add a round tile.
1 353 0 -128 10 1 0 0 0 1 0 0 0 1 86876.dat
1 0 0 -116 28 1 0 0 0 0 1 0 -1 0 98138.dat
0 STEP
0 !RC TITLE Fill the layer
0 !RC TEXT Stand a coral 1x2 brick on each end and lay one along the back row between them.
1 353 -30 -128 0 0 0 -1 0 1 0 1 0 0 3004.dat
1 353 30 -128 0 0 0 -1 0 1 0 1 0 0 3004.dat
1 353 0 -128 -10 1 0 0 0 1 0 0 0 1 3004.dat
0 STEP
0 !RC TITLE Smile
0 !RC TEXT A coral 1x4 brick along the back row and the coral printed smile brick centred on the front row.
1 353 0 -152 -10 1 0 0 0 1 0 0 0 1 3010.dat
1 353 0 -152 10 1 0 0 0 1 0 0 0 1 110721.dat
0 STEP
0 !RC TITLE Cheeks
0 !RC TEXT A coral 1x1 side-stud brick on each front corner, studs facing front.
1 353 -30 -152 10 1 0 0 0 1 0 0 0 1 87087.dat
1 353 30 -152 10 1 0 0 0 1 0 0 0 1 87087.dat
0 STEP
0 !RC TITLE Eyes
0 !RC TEXT Press a white printed eye tile onto each side stud.
1 15 -30 -140 28 1 0 0 0 0 1 0 -1 0 102577.dat
1 15 30 -140 28 1 0 0 0 0 1 0 -1 0 102577.dat
0 STEP
0 !RC TITLE Crown
0 !RC TEXT Centre a coral 2x2 brick on top.
1 353 0 -176 0 1 0 0 0 1 0 0 0 1 3003.dat
0 STEP
0 !RC TITLE Rounded top
0 !RC TEXT Stand a coral 1x2 curved brick on each side of it, curving outward.
1 353 -30 -176 0 0 0 -1 0 1 0 1 0 0 37352.dat
1 353 30 -176 0 0 0 1 0 1 0 -1 0 0 37352.dat
0 STEP
