0 Panini (11039 rebuild)
0 Name: model.ldr
0 Author: LEGO Classic 11039 Creative Food Friends (demo booklet)
0 !RC TITLE Bottom bread
0 !RC TEXT Two yellow 4x4 quarter-circle plates side by side, curves towards the front.
1 14 -40 -8 0 0 0 -1 0 1 0 1 0 0 30565.dat
1 14 40 -8 0 1 0 0 0 1 0 0 0 1 30565.dat
0 STEP
0 !RC TITLE Crust
0 !RC TEXT The yellow 1x8 brick along the back row.
1 14 0 -32 -30 1 0 0 0 1 0 0 0 1 3008.dat
0 STEP
0 !RC TITLE Lettuce and tomato
0 !RC TEXT A lime 1x4 brick centred on the second row with a red 1x1 round plate at each end.
1 27 0 -32 -10 1 0 0 0 1 0 0 0 1 3010.dat
1 4 -50 -32 -10 1 0 0 0 1 0 0 0 1 28626.dat
1 4 50 -32 -10 1 0 0 0 1 0 0 0 1 28626.dat
0 STEP
0 !RC TITLE Filling
0 !RC TEXT A coral 1x2 brick centred on the third row with a white 1x1 side-stud brick either side, studs facing front.
1 353 0 -32 10 1 0 0 0 1 0 0 0 1 3004.dat
1 15 -30 -32 10 1 0 0 0 1 0 0 0 1 87087.dat
1 15 30 -32 10 1 0 0 0 1 0 0 0 1 87087.dat
0 STEP
0 !RC TITLE Eyes
0 !RC TEXT Press a white closed-eye tile onto each side stud.
1 15 -30 -20 28 1 0 0 0 0 1 0 -1 0 102763.dat
1 15 30 -20 28 1 0 0 0 0 1 0 -1 0 102763.dat
0 STEP
0 !RC TITLE Greens
0 !RC TEXT Four bright green leaf plates poking out of the sides and front.
1 10 -50 -16 10 0 0 -1 0 1 0 1 0 0 32607.dat
1 10 50 -16 10 0 0 1 0 1 0 -1 0 0 32607.dat
1 10 -10 -16 30 1 0 0 0 1 0 0 0 1 32607.dat
1 10 10 -16 30 1 0 0 0 1 0 0 0 1 32607.dat
0 STEP
0 !RC TITLE Top bread
0 !RC TEXT Two more quarter-circle plates on top, curves towards the front.
1 14 -40 -56 0 0 0 -1 0 1 0 1 0 0 30565.dat
1 14 40 -56 0 1 0 0 0 1 0 0 0 1 30565.dat
0 STEP
0 !RC TITLE Garnish
0 !RC TEXT Finish with the red 1x2 half-circle tile on top.
1 4 0 -64 10 1 0 0 0 1 0 0 0 1 1748.dat
0 STEP
