0 Sprinkle cake (11039 rebuild)
0 Name: model.ldr
0 Author: LEGO Classic 11039 Creative Food Friends (demo booklet)
0 !RC TITLE Base plate
0 !RC TEXT Place the reddish brown 2x4 plate flat, long side left to right.
1 70 0 -8 0 1 0 0 0 1 0 0 0 1 3020.dat
0 STEP
0 !RC TITLE Centre brick
0 !RC TEXT Centre a reddish brown 2x2 brick on the plate.
1 70 0 -32 0 1 0 0 0 1 0 0 0 1 3003.dat
0 STEP
0 !RC TITLE Wrapper flares
0 !RC TEXT Add a reddish brown 2x2 inverted slope on each side, overhanging left and right.
1 70 -40 -32 0 0 0 -1 0 1 0 1 0 0 3660.dat
1 70 40 -32 0 0 0 1 0 1 0 -1 0 0 3660.dat
0 STEP
0 !RC TITLE Back of the frosting
0 !RC TEXT Place a white 1x4 brick along the back row.
1 15 0 -56 -10 1 0 0 0 1 0 0 0 1 3010.dat
0 STEP
0 !RC TITLE Rounded sides
0 !RC TEXT Stand a white 1x2 curved brick on each end so the curve falls outward.
1 15 -50 -56 0 0 0 -1 0 1 0 1 0 0 37352.dat
1 15 50 -56 0 0 0 1 0 1 0 -1 0 0 37352.dat
0 STEP
0 !RC TITLE Smile
0 !RC TEXT Front row: the white printed smile brick in the middle with a white 1x1 side-stud brick each side, studs facing front.
1 15 0 -56 10 1 0 0 0 1 0 0 0 1 110723.dat
1 15 -30 -56 10 1 0 0 0 1 0 0 0 1 87087.dat
1 15 30 -56 10 1 0 0 0 1 0 0 0 1 87087.dat
0 STEP
0 !RC TITLE Star eyes
0 !RC TEXT Press a white star-eye tile onto each side stud.
1 15 -30 -44 28 1 0 0 0 0 1 0 -1 0 102764.dat
1 15 30 -44 28 1 0 0 0 0 1 0 -1 0 102764.dat
0 STEP
0 !RC TITLE Right swirl
0 !RC TEXT Two white 1x1 cheese slopes on the right column, sloping right.
1 15 30 -80 -10 0 0 1 0 1 0 -1 0 0 54200.dat
1 15 30 -80 10 0 0 1 0 1 0 -1 0 0 54200.dat
0 STEP
0 !RC TITLE Left swirl
0 !RC TEXT A white 1x2 brick standing beside them, then two white inverted 1x2 arches to its left, curving down to the left.
1 15 10 -80 0 0 0 -1 0 1 0 1 0 0 3004.dat
1 15 -20 -80 -10 0 0 -1 0 1 0 1 0 0 78666.dat
1 15 -20 -80 10 0 0 -1 0 1 0 1 0 0 78666.dat
0 STEP
0 !RC TITLE Sprinkles
0 !RC TEXT Dot the top with the medium azure, bright pink and yellow round tiles plus the white half-circle tile.
1 322 -30 -88 -10 1 0 0 0 1 0 0 0 1 98138.dat
1 29 -10 -88 10 1 0 0 0 1 0 0 0 1 98138.dat
1 14 10 -88 -10 1 0 0 0 1 0 0 0 1 98138.dat
1 15 -30 -88 10 1 0 0 0 1 0 0 0 1 35399.dat
0 STEP
