0 Bubble tea (11039 rebuild)
0 Name: model.ldr
0 Author: LEGO Classic 11039 Creative Food Friends (demo booklet)
0 !RC TITLE Cup base
0 !RC TEXT Lay a white 2x4 plate flat.
1 15 0 -8 0 1 0 0 0 1 0 0 0 1 3020.dat
0 STEP
0 !RC TITLE Tapioca
0 !RC TEXT Scatter the four black round tiles on the plate.
1 0 -30 -16 -10 1 0 0 0 1 0 0 0 1 98138.dat
1 0 -10 -16 10 1 0 0 0 1 0 0 0 1 98138.dat
1 0 10 -16 -10 1 0 0 0 1 0 0 0 1 98138.dat
1 0 30 -16 10 1 0 0 0 1 0 0 0 1 98138.dat
0 STEP
0 !RC TITLE Clear cup
0 !RC TEXT Cover them with the two transparent 2x2 bricks.
1 47 -20 -32 0 1 0 0 0 1 0 0 0 1 35275.dat
1 47 20 -32 0 1 0 0 0 1 0 0 0 1 35275.dat
0 STEP
0 !RC TITLE Cone rim
0 !RC TEXT Lay a coral 1x4 brick along the back row.
1 353 0 -56 -10 1 0 0 0 1 0 0 0 1 3010.dat
0 STEP
0 !RC TITLE Lower chips
0 !RC TEXT Front row: two coral 1x2 side-stud bricks side by side, studs facing front, with a round tile on each stud.
1 353 -20 -56 10 1 0 0 0 1 0 0 0 1 86876.dat
1 353 20 -56 10 1 0 0 0 1 0 0 0 1 86876.dat
1 322 -20 -44 28 1 0 0 0 0 1 0 -1 0 98138.dat
1 29 20 -44 28 1 0 0 0 0 1 0 -1 0 98138.dat
0 STEP
0 !RC TITLE Upper chip
0 !RC TEXT Centre a coral 1x2 side-stud brick on the front row above, stud facing front, and add a round tile.
1 353 0 -80 10 1 0 0 0 1 0 0 0 1 86876.dat
1 14 0 -68 28 1 0 0 0 0 1 0 -1 0 98138.dat
0 STEP
0 !RC TITLE Fill the layer
0 !RC TEXT Stand a coral 1x2 brick on each end and lay one along the back row between them.
1 353 -30 -80 0 0 0 -1 0 1 0 1 0 0 3004.dat
1 353 30 -80 0 0 0 -1 0 1 0 1 0 0 3004.dat
1 353 0 -80 -10 1 0 0 0 1 0 0 0 1 3004.dat
0 STEP
0 !RC TITLE Smile
0 !RC TEXT A coral 1x4 brick along the back row and the coral printed smile brick centred on the front row.
1 353 0 -104 -10 1 0 0 0 1 0 0 0 1 3010.dat
1 353 0 -104 10 1 0 0 0 1 0 0 0 1 110721.dat
0 STEP
0 !RC TITLE Cheeks
0 !RC TEXT A coral 1x1 side-stud brick on each front corner, studs facing front.
1 353 -30 -104 10 1 0 0 0 1 0 0 0 1 87087.dat
1 353 30 -104 10 1 0 0 0 1 0 0 0 1 87087.dat
0 STEP
0 !RC TITLE Eyes
0 !RC TEXT Press a white printed eye tile onto each side stud.
1 15 -30 -92 28 1 0 0 0 0 1 0 -1 0 102764.dat
1 15 30 -92 28 1 0 0 0 0 1 0 -1 0 102764.dat
0 STEP
0 !RC TITLE Crown
0 !RC TEXT Centre a coral 2x2 brick on top.
1 353 0 -128 0 1 0 0 0 1 0 0 0 1 3003.dat
0 STEP
0 !RC TITLE Rounded top
0 !RC TEXT Stand a coral 1x2 curved brick on each side of it, curving outward.
1 353 -30 -128 0 0 0 -1 0 1 0 1 0 0 37352.dat
1 353 30 -128 0 0 0 1 0 1 0 -1 0 0 37352.dat
0 STEP
0 !RC TITLE Lid
0 !RC TEXT Centre the white 2x2 round plate on top.
1 15 0 -152 0 1 0 0 0 1 0 0 0 1 18674.dat
0 STEP
0 !RC TITLE Straw
0 !RC TEXT Push the white tube onto the lid stud.
1 15 0 -176 0 1 0 0 0 1 0 0 0 1 25214.dat
0 STEP
