0 Small Car Body
0 Name: model.ldr
0 !RC TITLE Chassis
0 !RC TEXT Lay two red 2x8 plates end to end for the chassis.
1 4 -40 -8 0 1 0 0 0 1 0 0 0 1 3034.dat
1 4 40 -8 0 1 0 0 0 1 0 0 0 1 3034.dat
0 STEP
0 !RC TITLE Front bumper
0 !RC TEXT Add two white 1x2 bricks across the front edge.
1 15 -50 -32 -30 1 0 0 0 1 0 0 0 1 3004.dat
1 15 50 -32 -30 1 0 0 0 1 0 0 0 1 3004.dat
0 STEP
0 !RC TITLE Side rails
0 !RC TEXT Place blue 1x4 bricks along both sides.
1 1 -40 -32 20 1 0 0 0 1 0 0 0 1 3010.dat
1 1 40 -32 20 1 0 0 0 1 0 0 0 1 3010.dat
0 STEP
0 !RC TITLE Rear rail
0 !RC TEXT Close the rear with two blue 1x2 bricks.
1 1 -50 -32 50 1 0 0 0 1 0 0 0 1 3004.dat
1 1 50 -32 50 1 0 0 0 1 0 0 0 1 3004.dat
0 STEP
0 !RC TITLE Cabin base
0 !RC TEXT Add a yellow 2x4 brick in the center of the chassis.
1 14 0 -32 0 1 0 0 0 1 0 0 0 1 3001.dat
0 STEP
0 !RC TITLE Hood
0 !RC TEXT Finish the front with a white 2x4 plate.
1 15 0 -40 -35 1 0 0 0 1 0 0 0 1 3020.dat
