0 Red Sports Car (60486)
0 Name: model.ldr
0 Author: LEGO City 60486 Red Sports Car (booklet 6617248)
0 !RC TITLE Driver
0 !RC TEXT Build the driver: dark blue legs, reddish brown jacket torso, head and grey hair. Hand her the phone tile and set her aside.
1 272 -200 -32 130 1 0 0 0 1 0 0 0 1 73200.dat
1 70 -200 -64 130 1 0 0 0 1 0 0 0 1 76382.dat
1 14 -200 -84 130 1 0 0 0 1 0 0 0 1 105777.dat
1 0 -200 -96 130 1 0 0 0 1 0 0 0 1 79688.dat
1 272 -176 -60 120 1 0 0 0 0 -1 0 1 0 73893.dat
0 STEP
0 !RC TITLE Chassis and axle pins
0 !RC TEXT Lay the black 4x14 chassis flat. Push a tan connector peg into each of the four wheel holes on its sides.
1 0 0 0 0 1 0 0 0 1 0 0 0 1 7035.dat
1 19 -80 12 -40 1 0 0 0 0 1 0 -1 0 6562.dat
1 19 80 12 -40 1 0 0 0 0 1 0 -1 0 6562.dat
1 19 -80 12 40 1 0 0 0 0 -1 0 1 0 6562.dat
1 19 80 12 40 1 0 0 0 0 -1 0 1 0 6562.dat
0 STEP
0 !RC TITLE First plates
0 !RC TEXT A white rounded 1x2 plate across the very front of the chassis, and the medium azure 2x3 plate on the right side towards the back.
1 15 -130 -8 0 0 0 1 0 1 0 -1 0 0 35480.dat
1 322 90 -8 20 1 0 0 0 1 0 0 0 1 3021.dat
0 STEP
0 !RC TITLE Nose bracket
0 !RC TEXT The tan 2x2 plate with two side studs goes in the middle of the front, studs facing forwards.
1 19 -100 -16 0 0 0 -1 0 1 0 1 0 0 4304.dat
0 STEP
0 !RC TITLE Engine block
0 !RC TEXT Centre the lime 2x4 brick lengthways behind the tan bracket, a white rounded plate on top of the bracket, and a dark orange slope on the left behind the lime brick, sloping backwards.
1 27 -40 -24 0 1 0 0 0 1 0 0 0 1 3001.dat
1 15 -100 -24 0 0 0 1 0 1 0 -1 0 0 35480.dat
1 484 20 -24 -20 0 0 1 0 1 0 -1 0 0 3039.dat
0 STEP
0 !RC TITLE Tail
0 !RC TEXT Put the two black cut-corner 2x2 plates on the rounded black 4x6 plate with the cuts at the round end, and the light grey ingot centred at the back as a number plate. Push the tail onto the rear of the chassis so it overhangs.
1 0 180 -16 0 0 0 1 0 1 0 -1 0 0 7797.dat
1 0 190 -24 -20 1 0 0 0 1 0 0 0 1 26601.dat
1 0 190 -24 20 1 0 0 0 1 0 0 0 1 26601.dat
1 71 220 -24 0 0 0 1 0 1 0 -1 0 0 99563.dat
0 STEP
0 !RC TITLE Steering wheel
0 !RC TEXT The dark grey steering console stands on the left just behind the dashboard slope, with a white rounded plate and a red low slope behind it as the seat.
1 72 30 -24 -20 1 0 0 0 1 0 0 0 1 73081.dat
1 15 50 -16 -10 0 0 1 0 1 0 -1 0 0 35480.dat
1 4 70 -16 -10 0 0 1 0 1 0 -1 0 0 85984.dat
0 STEP
0 !RC TITLE Rear block
0 !RC TEXT A red 2x2 brick on the left of the tail plate and a red 1x2 low slope beside it on the right, sloping backwards.
1 4 140 -40 -20 1 0 0 0 1 0 0 0 1 3003.dat
1 4 140 -32 20 0 0 1 0 1 0 -1 0 0 85984.dat
0 STEP
0 !RC TITLE Seat floor
0 !RC TEXT The black 2x4 plate lies on the left of the cockpit floor. The two white cut tiles go at the back of the tail, points outwards.
1 0 60 -8 -20 1 0 0 0 1 0 0 0 1 3020.dat
1 15 200 -32 -10 1 0 0 0 1 0 0 0 1 5091.dat
1 15 200 -32 10 1 0 0 0 1 0 0 0 1 5092.dat
0 STEP
0 !RC TITLE Rear arches and lights
0 !RC TEXT Hang a black mudguard over each rear wheel hole. A dark turquoise round plate goes on each rear corner of the tail as a tail light, and a red curved slope on the number plate curving backwards.
1 0 80 -24 -60 0 0 1 0 1 0 -1 0 0 3387.dat
1 0 80 -24 60 0 0 1 0 1 0 -1 0 0 3387.dat
1 3 220 -24 -30 1 0 0 0 1 0 0 0 1 6141.dat
1 3 220 -24 30 1 0 0 0 1 0 0 0 1 6141.dat
1 4 220 -32 0 0 0 1 0 1 0 -1 0 0 11477.dat
0 STEP
0 !RC TITLE Dashboard and rear deck
0 !RC TEXT The second dark orange slope completes the dashboard on the right. A white rounded plate goes on the right of the engine, and the light grey 2x4 plate on top of the red brick at the back.
1 484 20 -24 20 0 0 1 0 1 0 -1 0 0 3039.dat
1 15 -60 -8 30 1 0 0 0 1 0 0 0 1 35480.dat
1 71 140 -48 -20 1 0 0 0 1 0 0 0 1 3020.dat
0 STEP
0 !RC TITLE Doors
0 !RC TEXT Four dark grey brackets along both sides of the cockpit with the hanging plates facing outwards to form the doors.
1 72 60 -32 -30 -1 0 0 0 1 0 0 0 -1 7674.dat
1 72 100 -24 -30 -1 0 0 0 1 0 0 0 -1 7674.dat
1 72 60 -32 30 1 0 0 0 1 0 0 0 1 7674.dat
1 72 100 -32 30 1 0 0 0 1 0 0 0 1 7674.dat
0 STEP
0 !RC TITLE Bonnet sides
0 !RC TEXT A dark grey corner panel on each side beside the tan bracket, and a dark grey studless 1x2 slope on each side in front of the dashboard, sloping outwards.
1 72 -90 -24 -30 1 0 0 0 1 0 0 0 1 6231.dat
1 72 -90 -24 30 1 0 0 0 1 0 0 0 1 6231.dat
1 72 -20 -24 -30 -1 0 0 0 1 0 0 0 -1 28192.dat
1 72 -20 -24 30 1 0 0 0 1 0 0 0 1 28192.dat
0 STEP
0 !RC TITLE Wing blocks
0 !RC TEXT Make two stacks: a red 2x2 brick with two red 1x2 plates side by side on top. They sit on the outside edge of the car, just in front of the doors, ready for the front arches.
1 4 -40 -48 -60 1 0 0 0 1 0 0 0 1 3003.dat
1 4 -40 -56 -70 1 0 0 0 1 0 0 0 1 3023.dat
1 4 -40 -56 -50 1 0 0 0 1 0 0 0 1 3023.dat
1 4 -40 -48 60 1 0 0 0 1 0 0 0 1 3003.dat
1 4 -40 -56 70 1 0 0 0 1 0 0 0 1 3023.dat
1 4 -40 -56 50 1 0 0 0 1 0 0 0 1 3023.dat
0 STEP
0 !RC TITLE Front arches
0 !RC TEXT Hang a red mudguard over each front wheel hole under the wing blocks, then a red 1x2 plate on top of each wing block.
1 4 -80 -24 -60 0 0 1 0 1 0 -1 0 0 3387.dat
1 4 -80 -24 60 0 0 1 0 1 0 -1 0 0 3387.dat
1 4 -40 -64 -60 1 0 0 0 1 0 0 0 1 3023.dat
1 4 -40 -64 60 1 0 0 0 1 0 0 0 1 3023.dat
0 STEP
0 !RC TITLE Front bumper
0 !RC TEXT Clip two black inverted brackets together side by side, top them with the red curved 1x2 slope curving forwards, and add a red cut tile to each end. Fix the bumper to the studs on the tan bracket.
1 0 -170 -8 -10 0 0 1 0 1 0 -1 0 0 99780.dat
1 0 -170 -8 10 0 0 1 0 1 0 -1 0 0 99780.dat
1 4 -170 -24 0 0 0 -1 0 1 0 1 0 0 11477.dat
1 4 -170 -16 -40 1 0 0 0 1 0 0 0 1 35787.dat
1 4 -170 -16 40 1 0 0 0 1 0 0 0 1 35787.dat
0 STEP
0 !RC TITLE Bonnet
0 !RC TEXT The red 2x4 plate covers the lime brick, and two sand green jumper plates sit side by side in the middle of it.
1 4 -40 -32 0 1 0 0 0 1 0 0 0 1 5584.dat
1 378 -50 -40 0 1 0 0 0 1 0 0 0 1 15573.dat
1 378 -30 -40 0 1 0 0 0 1 0 0 0 1 15573.dat
0 STEP
0 !RC TITLE Dashboard screen
0 !RC TEXT The translucent light blue printed tile bridges the two jumper studs; a dark grey 1x1 tile goes at each end of the bonnet plate.
1 43 -40 -48 0 1 0 0 0 1 0 0 0 1 115971.dat
1 72 -70 -40 0 1 0 0 0 1 0 0 0 1 3070.dat
1 72 -10 -40 0 1 0 0 0 1 0 0 0 1 3070.dat
0 STEP
0 !RC TITLE Bonnet edges
0 !RC TEXT A light grey 1x5 plate runs along each side of the bonnet, from the corner panels back to the studless slopes.
1 71 -50 -32 -30 1 0 0 0 1 0 0 0 1 78329.dat
1 71 -50 -32 30 1 0 0 0 1 0 0 0 1 78329.dat
0 STEP
0 !RC TITLE Mirrors
0 !RC TEXT The last white rounded plate goes on top of the nose stack. A dark grey plate with vertical grip sits on each 1x5 plate near the windscreen as a wing mirror.
1 15 -100 -32 0 0 0 1 0 1 0 -1 0 0 35480.dat
1 72 -50 -40 -30 1 0 0 0 1 0 0 0 1 44861.dat
1 72 -50 -40 30 1 0 0 0 1 0 0 0 1 44861.dat
0 STEP
0 !RC TITLE Nose
0 !RC TEXT The black 1x2 low slope points forwards over the front of the chassis, and a black 1x4 plate with side studs lies across it, studs facing forwards.
1 0 -140 -24 0 0 0 -1 0 1 0 1 0 0 85984.dat
1 0 -140 -32 0 0 0 1 0 1 0 -1 0 0 41740.dat
0 STEP
0 !RC TITLE Headlight tiles
0 !RC TEXT A red cut tile on each 1x5 plate ahead of the mirrors, points outwards, and the third red low slope on the white nose plate, sloping forwards.
1 4 -70 -40 -30 1 0 0 0 1 0 0 0 1 5091.dat
1 4 -70 -40 30 1 0 0 0 1 0 0 0 1 5092.dat
1 4 -100 -48 0 0 0 -1 0 1 0 1 0 0 85984.dat
0 STEP
0 !RC TITLE Front wings
0 !RC TEXT The red curved 2x3 bricks sit on the front mudguards, left and right, curving down towards the nose.
1 4 -90 -48 -60 0 0 -1 0 1 0 1 0 0 80177.dat
1 4 -90 -48 60 0 0 -1 0 1 0 1 0 0 80178.dat
0 STEP
0 !RC TITLE Grille
0 !RC TEXT The second light grey ingot lies across the nose plate, with a dark grey 1x3 tile on each side of the bonnet ahead of the headlight tiles.
1 71 -140 -40 0 0 0 1 0 1 0 -1 0 0 99563.dat
1 72 -110 -40 -30 1 0 0 0 1 0 0 0 1 63864.dat
1 72 -110 -40 30 1 0 0 0 1 0 0 0 1 63864.dat
0 STEP
0 !RC TITLE Rear deck plates
0 !RC TEXT Two black 1x4 plates with side studs lie side by side on the light grey deck plate, studs facing outwards.
1 0 140 -56 -30 -1 0 0 0 1 0 0 0 -1 41740.dat
1 0 140 -56 -10 1 0 0 0 1 0 0 0 1 41740.dat
0 STEP
0 !RC TITLE Tail corners
0 !RC TEXT A black cut tile on each rear corner plate, cut corners outwards.
1 0 170 -32 30 1 0 0 0 1 0 0 0 1 35787.dat
1 0 170 -32 -30 1 0 0 0 1 0 0 0 1 35787.dat
0 STEP
0 !RC TITLE Sills
0 !RC TEXT Two dark grey 1x4 plates with side studs across the cockpit floor behind the seat, studs facing back.
1 72 80 -16 10 1 0 0 0 1 0 0 0 1 41740.dat
1 72 100 -16 -10 1 0 0 0 1 0 0 0 1 41740.dat
0 STEP
0 !RC TITLE Engine cover and side stripes
0 !RC TEXT Two black 1x3 bow bricks side by side on the rear deck curving backwards, and a black 1x6 tile along each side of the bonnet.
1 0 140 -72 -30 0 0 1 0 1 0 -1 0 0 7302.dat
1 0 140 -72 -10 0 0 1 0 1 0 -1 0 0 7302.dat
1 0 -70 -48 -30 1 0 0 0 1 0 0 0 1 6636.dat
1 0 -70 -48 30 1 0 0 0 1 0 0 0 1 6636.dat
0 STEP
0 !RC TITLE Bumper corners
0 !RC TEXT A black quarter-circle plate on each front corner above the bumper tiles, rounded edges outwards.
1 0 -170 -32 -40 -1 0 0 0 1 0 0 0 -1 79491.dat
1 0 -170 -32 40 0 0 -1 0 1 0 1 0 0 79491.dat
0 STEP
0 !RC TITLE Nose cone
0 !RC TEXT The black curved 2x4 slope caps the nose, curving down to the front.
1 0 -150 -56 0 0 0 -1 0 1 0 1 0 0 93606.dat
0 STEP
0 !RC TITLE Rear wings
0 !RC TEXT The black curved 2x3 bricks sit on the rear mudguards, curving down towards the tail.
1 0 90 -48 -60 0 0 1 0 1 0 -1 0 0 80177.dat
1 0 90 -48 60 0 0 1 0 1 0 -1 0 0 80178.dat
0 STEP
0 !RC TITLE Spoiler
0 !RC TEXT A red 1x3 bow brick on each tail light, curving down towards the back.
1 4 210 -40 -30 0 0 1 0 1 0 -1 0 0 7302.dat
1 4 210 -40 30 0 0 1 0 1 0 -1 0 0 7302.dat
0 STEP
0 !RC TITLE Roof
0 !RC TEXT Put a black 1x2 plate with bar on each door top, bar pointing back, then the black triple-curved 4x3 wedge on top as the roof, curving down towards the rear.
1 0 60 -40 -30 1 0 0 0 1 0 0 0 1 60478.dat
1 0 60 -40 30 1 0 0 0 1 0 0 0 1 60478.dat
1 0 70 -64 0 0 0 1 0 1 0 -1 0 0 64225.dat
0 STEP
0 !RC TITLE Windscreen
0 !RC TEXT The translucent black windscreen leans from the front of the roof down onto the bonnet.
1 40 10 -64 0 0 0 -1 0 1 0 1 0 0 5378.dat
0 STEP
0 !RC TITLE Front wheels
0 !RC TEXT Push a red round hub cap into two wheels and press them onto the front pegs.
1 0 -80 12 -56 1 0 0 0 0 1 0 -1 0 72206.dat
1 4 -80 12 -72 1 0 0 0 0 1 0 -1 0 15535.dat
1 0 -80 12 56 1 0 0 0 0 -1 0 1 0 72206.dat
1 4 -80 12 72 1 0 0 0 0 -1 0 1 0 15535.dat
0 STEP
0 !RC TITLE Rear wheels
0 !RC TEXT The last two wheels get dark grey hub caps and go on the rear pegs. Seat the driver and you are done.
1 0 80 12 -56 1 0 0 0 0 1 0 -1 0 72206.dat
1 72 80 12 -72 1 0 0 0 0 1 0 -1 0 15535.dat
1 0 80 12 56 1 0 0 0 0 -1 0 1 0 72206.dat
1 72 80 12 72 1 0 0 0 0 -1 0 1 0 15535.dat
0 STEP
